<?xml version="1.0" standalone="no"?><!DOCTYPE svg PUBLIC "-//W3C//DTD SVG 1.1//EN" "http://www.w3.org/Graphics/SVG/1.1/DTD/svg11.dtd"><svg t="1751376026956" class="icon" viewBox="0 0 1024 1024" version="1.1" xmlns="http://www.w3.org/2000/svg" p-id="5871" xmlns:xlink="http://www.w3.org/1999/xlink" width="200" height="200"><path d="M947.86 456.556L589.952 156.26c-21.906-18.38-49.722-28.516-78.324-28.525h-0.044c-28.585 0-56.395 10.11-78.305 28.468L74.762 456.542c-12.852 10.767-14.544 29.912-3.777 42.765 6.008 7.165 14.617 10.86 23.289 10.86a30.246 30.246 0 0 0 19.477-7.083l18.521-15.52v325.161c0 21.899 8.527 42.489 24.012 57.973 15.485 15.483 36.071 24.011 57.974 24.011h184.666v-0.02c66.174 0 60.78-60.692 60.78-60.692V629.536a15.43 15.43 0 0 1 4.553-10.983 15.42 15.42 0 0 1 10.985-4.548h72.125a15.43 15.43 0 0 1 10.984 4.548 15.434 15.434 0 0 1 4.552 10.983v204.46h-0.01s-5.394 60.694 60.78 60.694v0.02H808.35c21.896 0 42.485-8.529 57.97-24.012 15.488-15.485 24.015-36.074 24.015-57.973V487.54l18.502 15.528c12.844 10.772 31.993 9.1 42.77-3.747 10.771-12.843 9.095-31.987-3.749-42.765zM829.62 812.724a21.14 21.14 0 0 1-6.227 15.044 21.127 21.127 0 0 1-15.041 6.229H623.615V629.536c0-20.365-7.932-39.514-22.331-53.914-14.401-14.402-33.551-22.335-53.916-22.335h-72.125c-20.37 0-39.52 7.933-53.918 22.335-14.398 14.399-22.33 33.548-22.33 53.914v204.46H214.257a21.127 21.127 0 0 1-15.04-6.228 21.118 21.118 0 0 1-6.233-15.04V436.702l279.278-233.967a61.334 61.334 0 0 1 39.322-14.292h0.02a61.329 61.329 0 0 1 39.327 14.321L829.62 436.602v376.122z" p-id="5872" fill="#ffffff"></path></svg>