<?xml version="1.0" standalone="no"?><!DOCTYPE svg PUBLIC "-//W3C//DTD SVG 1.1//EN" "http://www.w3.org/Graphics/SVG/1.1/DTD/svg11.dtd"><svg t="1751376304863" class="icon" viewBox="0 0 1173 1024" version="1.1" xmlns="http://www.w3.org/2000/svg" p-id="8785" xmlns:xlink="http://www.w3.org/1999/xlink" width="229.1015625" height="200"><path d="M1156.114316 405.574579L621.63234 11.566376a59.120016 59.120016 0 0 0-70.243596 0L16.906768 405.574579c-18.785298 13.713267-22.273996 41.112966-8.560729 59.965354s41.112966 22.260578 59.951936 8.560729L585.671912 93.792308l519.051196 382.025867a46.144742 46.144742 0 0 0 25.72244 8.560728c13.699849 0 25.695604-6.856634 34.256332-17.134875 13.686431-20.556483 10.251405-46.252087-8.587564-61.669449z" p-id="8786"></path><path d="M967.670943 480.957295v431.699561c0 13.699849-8.560729 23.978091-17.134875 23.978091H768.949328V765.32645c0-56.530328-46.252087-104.499928-102.782415-104.499928H505.163493c-56.530328 0-102.782415 46.252087-102.782415 104.499928v171.308497H220.767503c-8.574147 0-17.134875-10.278241-17.134875-23.978091V480.957295c-47.9696 8.560729-85.64754 53.10872-85.64754 107.921536v325.48212c0 59.965354 46.252087 109.639049 102.782415 109.639049h267.234279v-256.956037c0-10.278241 6.856634-18.852388 17.134875-18.852389h161.043675c10.278241 0 17.134875 8.574147 17.134875 18.852389v256.956037H950.536068c56.543746 0 102.795833-49.646858 102.795833-109.639049V588.878831c0-54.812815-37.691358-99.360807-85.660958-107.921536z" p-id="8787"></path></svg>